<svg xmlns="http://www.w3.org/2000/svg" xml:space="preserve" width="32" height="32"><path d="M3 6a3 3 0 0 0-3 3v14a3 3 0 0 0 3 3h26a3 3 0 0 0 3-3V9a3 3 0 0 0-3-3Zm13.42 3.8c1.3 0 2.53.39 2.96.58v1.89c0 .2-.13.23-.24.08-.56-.9-1.54-1.73-2.8-1.73-.99 0-1.82.33-1.82 1.26 0 2.21 5.42 2.28 5.42 5.76 0 .77-.08 1.26-.19 1.6-.06.2-.26.13-.24-.04s.04-.31.04-.62c0-3.34-6.9-3.28-6.9-6.5 0-1.64 1.62-2.29 3.77-2.29m-14.45.28H4.8c3.28 0 5.87 1.02 5.87 5.9 0 4.07-2.19 6.01-5.84 6.01H1.97c.23-2.92.3-8.77 0-11.91m19.35 0h2.84c3.28 0 5.87 1.02 5.87 5.9 0 4.07-2.19 6.01-5.83 6.01h-2.88c.23-2.92.3-8.77 0-11.91m-15.94.85c-.62 0-.94.24-.97 1.03-.1 2.6-.1 5.85 0 8.17.03.7.26 1.04.97 1.04q2.87-.02 2.88-5.42c0-3.15-.99-4.82-2.88-4.82m19.35 0c-.61 0-.94.24-.97 1.03-.1 2.6-.1 5.85 0 8.17.03.7.26 1.04.97 1.04q2.86-.02 2.88-5.42c0-3.15-.99-4.82-2.88-4.82M12 12.36q.1 0 .11.15c0 3.62 6.84 3.5 6.84 6.69 0 1.91-1.03 3-3.6 3a9 9 0 0 1-3.55-.63v-2.42c0-.2.13-.2.23-.02.67 1.26 1.8 2.29 3.03 2.29 1.34 0 1.96-.76 1.96-1.92 0-2.54-5.25-2.57-5.25-6.21 0-.27.07-.7.1-.8q.04-.15.13-.13" style="fill:#222;fill-opacity:1;stroke-width:1.99998;stroke-linecap:square"/></svg>