<svg xmlns="http://www.w3.org/2000/svg" xml:space="preserve" width="32" height="32"><path d="M3.02 1.59a3 3 0 0 0-3.01 3v14.05a3 3 0 0 0 3 3.01h26.1a3 3 0 0 0 3-3V4.6a3 3 0 0 0-3-3.01zM9.75 5.6q1.02 0 1.9.27.88.25 1.6.78a4.4 4.4 0 0 1 1.78 2.92H13.1a3 3 0 0 0-.42-1q-.3-.45-.75-.74-.45-.3-1-.46a4.2 4.2 0 0 0-3.13.35q-.87.51-1.38 1.5-.5.97-.5 2.4t.5 2.42 1.39 1.48q.87.5 1.96.5.6 0 1.15-.14.55-.16 1-.45t.75-.73.43-1l1.94.01a4.5 4.5 0 0 1-1.74 2.84q-.7.51-1.6.8-.89.3-1.94.3a6 6 0 0 1-2.96-.73 5 5 0 0 1-2.05-2.08Q3.99 13.5 4 11.62q0-1.87.75-3.22A5 5 0 0 1 6.8 6.33a6 6 0 0 1 2.95-.73m8.3.03h4.16q1.83 0 3.15.72a5 5 0 0 1 2.01 2.06q.7 1.34.7 3.21 0 1.88-.7 3.23a5 5 0 0 1-2.05 2.08q-1.34.72-3.24.72h-4.04zm1.88 1.58v8.85h2.05a5 5 0 0 0 2.37-.51 3.3 3.3 0 0 0 1.4-1.51q.48-1 .48-2.42 0-1.41-.47-2.4a3.2 3.2 0 0 0-1.38-1.5 5 5 0 0 0-2.29-.5Z" style="fill:#222;fill-opacity:1;stroke-width:2.0067;stroke-linecap:square" transform="matrix(.99662 0 0 .99668 0 4.42)"/></svg>