<svg xmlns="http://www.w3.org/2000/svg" xml:space="preserve" width="16" height="16"><path fill="#222" d="M0 8V0h3.717a4.5 4.5 0 0 1 1.767.376c.492.208.85.553 1.116.944Q7 1.9 7 2.7q0 .81-.409 1.377A3.3 3.3 0 0 1 5.39 5.13c-.501.195-.705.47-1.39.47H1V4h2c.328 0 .841-.124 1.083-.247.241-.123.377-.308.491-.46q.171-.232.171-.593 0-.36-.17-.597-.172-.24-.506-.357a2.2 2.2 0 0 0-.795-.146H2V8Zm4.944-3.665L7 8.001H5L3 4.323ZM12.146 0q-.868 0-1.623.266a3.9 3.9 0 0 0-1.32.784q-.567.518-.885 1.263Q8 3.053 8 4.01q0 1.232.525 2.13.525.894 1.465 1.377T12.17 8q1.118 0 1.977-.4.865-.4 1.356-1.144.495-.745.496-1.791V3.2h-4v1.6h2l-.02.165q0 .423-.209.734-.207.312-.609.483-.398.167-.975.167-.652 0-1.109-.278-.457-.277-.697-.806-.242-.528-.242-1.277 0-.745.25-1.267.25-.525.706-.798a2.14 2.14 0 0 1 1.097-.324c.377 0 .808.01 1.13.177.32.167.459.38.678.623h2a2.15 2.15 0 0 0-.4-.8 4 4 0 0 0-.9-.858 3.9 3.9 0 0 0-1.151-.547Q12.9 0 12.147 0ZM8 9a8 3.5 0 0 0-8 3.5A8 3.5 0 0 0 8 16a8 3.5 0 0 0 8-3.5A8 3.5 0 0 0 8 9m0 2.188a3 1.313 0 0 1 3 1.312 3 1.313 0 0 1-3 1.313A3 1.313 0 0 1 5 12.5a3 1.313 0 0 1 3-1.312" style="stroke-width:3.77956;paint-order:markers stroke fill"/></svg>