<svg xmlns="http://www.w3.org/2000/svg" xml:space="preserve" width="16" height="16"><path fill="#222" d="M12 9h4v7h-4Zm-6 4h4v2.98H6Zm-6-2h4v4.96H0Zm0-3V0h3.72c.67 0 1.27.17 1.76.38.5.2.85.55 1.12.94Q7 1.9 7 2.7t-.4 1.38c-.28.37-.6.72-1.21 1.05-.5.2-.7.47-1.39.47H1V4h2c.33 0 .84-.12 1.08-.25.24-.12.38-.3.5-.46q.17-.23.17-.6 0-.35-.18-.59t-.5-.35a2 2 0 0 0-.8-.15H2V8Zm4.94-3.67L7 8H5L3 4.32ZM12.14 0q-.86 0-1.62.27a4 4 0 0 0-1.32.78q-.56.52-.88 1.26T8 4.01q0 1.23.53 2.13.52.9 1.46 1.38t2.18.48q1.12 0 1.98-.4t1.35-1.14.5-1.8V3.2h-4v1.6h2l-.02.17q0 .42-.2.73-.22.31-.62.48t-.97.17q-.65 0-1.11-.28t-.7-.8-.24-1.28.25-1.27.7-.8c.31-.18.68-.32 1.1-.32.38 0 .81 0 1.13.18.32.16.46.38.68.62h2q-.12-.44-.4-.8A4 4 0 0 0 13.55.2q-.65-.2-1.4-.2" style="stroke-width:3.77956;paint-order:markers stroke fill"/></svg>